<?xml version="1.0" encoding="utf-8" standalone="no"?>
<!DOCTYPE svg PUBLIC "-//W3C//DTD SVG 1.1//EN"
  "http://www.w3.org/Graphics/SVG/1.1/DTD/svg11.dtd">
<svg xmlns:xlink="http://www.w3.org/1999/xlink" width="433.19952pt" height="296.39952pt" viewBox="0 0 433.19952 296.39952" xmlns="http://www.w3.org/2000/svg" version="1.1">
 <metadata>
  <rdf:RDF xmlns:dc="http://purl.org/dc/elements/1.1/" xmlns:cc="http://creativecommons.org/ns#" xmlns:rdf="http://www.w3.org/1999/02/22-rdf-syntax-ns#">
   <cc:Work>
    <dc:type rdf:resource="http://purl.org/dc/dcmitype/StillImage"/>
    <dc:date>2026-01-21T12:10:57.480089</dc:date>
    <dc:format>image/svg+xml</dc:format>
    <dc:creator>
     <cc:Agent>
      <dc:title>Matplotlib v3.10.8, https://matplotlib.org/</dc:title>
     </cc:Agent>
    </dc:creator>
   </cc:Work>
  </rdf:RDF>
 </metadata>
 <defs>
  <style type="text/css">*{stroke-linejoin: round; stroke-linecap: butt}</style>
 </defs>
 <g id="figure_1">
  <g id="patch_1">
   <path d="M 0 296.39952 
L 433.19952 296.39952 
L 433.19952 0 
L 0 0 
z
" style="fill: #ffffff"/>
  </g>
  <g id="axes_1">
   <g id="patch_2">
    <path d="M 43.723125 205.739066 
L 425.99952 205.739066 
L 425.99952 34.038594 
L 43.723125 34.038594 
z
" style="fill: #ffffff"/>
   </g>
   <g id="matplotlib.axis_1">
    <g id="xtick_1">
     <g id="line2d_1">
      <defs>
       <path id="ma788adb7e2" d="M 0 0 
L 0 3.5 
" style="stroke: #000000; stroke-width: 0.8"/>
      </defs>
      <g>
       <use xlink:href="#ma788adb7e2" x="86.24094" y="205.739066" style="stroke: #000000; stroke-width: 0.8"/>
      </g>
     </g>
     <g id="text_1">
      <!-- gemma-3-4b -->
      <g transform="translate(44.648477 260.253152) rotate(-45) scale(0.09 -0.09)">
       <defs>
        <path id="DejaVuSerif-67" d="M 3359 2988 
L 3359 72 
Q 3359 -644 2965 -1033 
Q 2572 -1422 1844 -1422 
Q 1516 -1422 1216 -1362 
Q 916 -1303 641 -1184 
L 641 -488 
L 941 -488 
Q 997 -813 1206 -963 
Q 1416 -1113 1806 -1113 
Q 2313 -1113 2548 -827 
Q 2784 -541 2784 72 
L 2784 519 
Q 2616 206 2355 57 
Q 2094 -91 1709 -91 
Q 1097 -91 708 395 
Q 319 881 319 1663 
Q 319 2444 706 2928 
Q 1094 3413 1709 3413 
Q 2094 3413 2355 3264 
Q 2616 3116 2784 2803 
L 2784 3322 
L 3909 3322 
L 3909 2988 
L 3359 2988 
z
M 2784 1825 
Q 2784 2422 2554 2737 
Q 2325 3053 1888 3053 
Q 1444 3053 1217 2703 
Q 991 2353 991 1663 
Q 991 975 1217 622 
Q 1444 269 1888 269 
Q 2325 269 2554 583 
Q 2784 897 2784 1497 
L 2784 1825 
z
" transform="scale(0.015625)"/>
        <path id="DejaVuSerif-65" d="M 3469 1600 
L 991 1600 
L 991 1575 
Q 991 903 1244 561 
Q 1497 219 1991 219 
Q 2369 219 2611 417 
Q 2853 616 2950 1006 
L 3413 1006 
Q 3275 459 2904 184 
Q 2534 -91 1931 -91 
Q 1203 -91 761 389 
Q 319 869 319 1663 
Q 319 2450 753 2931 
Q 1188 3413 1894 3413 
Q 2647 3413 3050 2948 
Q 3453 2484 3469 1600 
z
M 2791 1931 
Q 2772 2513 2545 2808 
Q 2319 3103 1894 3103 
Q 1497 3103 1269 2806 
Q 1041 2509 991 1931 
L 2791 1931 
z
" transform="scale(0.015625)"/>
        <path id="DejaVuSerif-6d" d="M 3316 2675 
Q 3481 3041 3739 3227 
Q 3997 3413 4341 3413 
Q 4863 3413 5119 3089 
Q 5375 2766 5375 2113 
L 5375 331 
L 5894 331 
L 5894 0 
L 4300 0 
L 4300 331 
L 4800 331 
L 4800 2047 
Q 4800 2556 4650 2772 
Q 4500 2988 4153 2988 
Q 3769 2988 3567 2697 
Q 3366 2406 3366 1850 
L 3366 331 
L 3866 331 
L 3866 0 
L 2291 0 
L 2291 331 
L 2791 331 
L 2791 2069 
Q 2791 2566 2641 2777 
Q 2491 2988 2144 2988 
Q 1759 2988 1557 2697 
Q 1356 2406 1356 1850 
L 1356 331 
L 1856 331 
L 1856 0 
L 263 0 
L 263 331 
L 781 331 
L 781 2994 
L 231 2994 
L 231 3322 
L 1356 3322 
L 1356 2731 
Q 1516 3063 1762 3238 
Q 2009 3413 2322 3413 
Q 2709 3413 2968 3220 
Q 3228 3028 3316 2675 
z
" transform="scale(0.015625)"/>
        <path id="DejaVuSerif-61" d="M 2547 1044 
L 2547 1747 
L 1806 1747 
Q 1378 1747 1168 1562 
Q 959 1378 959 997 
Q 959 650 1171 447 
Q 1384 244 1747 244 
Q 2106 244 2326 466 
Q 2547 688 2547 1044 
z
M 3122 2075 
L 3122 331 
L 3634 331 
L 3634 0 
L 2547 0 
L 2547 359 
Q 2356 128 2106 18 
Q 1856 -91 1522 -91 
Q 969 -91 644 203 
Q 319 497 319 997 
Q 319 1513 691 1797 
Q 1063 2081 1741 2081 
L 2547 2081 
L 2547 2309 
Q 2547 2688 2317 2895 
Q 2088 3103 1672 3103 
Q 1328 3103 1125 2947 
Q 922 2791 872 2484 
L 575 2484 
L 575 3156 
Q 875 3284 1158 3348 
Q 1441 3413 1709 3413 
Q 2400 3413 2761 3070 
Q 3122 2728 3122 2075 
z
" transform="scale(0.015625)"/>
        <path id="DejaVuSerif-2d" d="M 281 1959 
L 1881 1959 
L 1881 1472 
L 281 1472 
L 281 1959 
z
" transform="scale(0.015625)"/>
        <path id="DejaVuSerif-33" d="M 622 4469 
Q 988 4606 1323 4678 
Q 1659 4750 1953 4750 
Q 2638 4750 3022 4454 
Q 3406 4159 3406 3634 
Q 3406 3213 3140 2930 
Q 2875 2647 2388 2547 
Q 2963 2466 3280 2130 
Q 3597 1794 3597 1259 
Q 3597 606 3158 257 
Q 2719 -91 1894 -91 
Q 1528 -91 1179 -12 
Q 831 66 488 225 
L 488 1131 
L 838 1131 
Q 869 681 1141 450 
Q 1413 219 1906 219 
Q 2384 219 2661 495 
Q 2938 772 2938 1253 
Q 2938 1803 2653 2086 
Q 2369 2369 1819 2369 
L 1522 2369 
L 1522 2688 
L 1678 2688 
Q 2225 2688 2498 2914 
Q 2772 3141 2772 3597 
Q 2772 4006 2547 4223 
Q 2322 4441 1900 4441 
Q 1478 4441 1245 4241 
Q 1013 4041 972 3647 
L 622 3647 
L 622 4469 
z
" transform="scale(0.015625)"/>
        <path id="DejaVuSerif-34" d="M 2234 1581 
L 2234 4063 
L 641 1581 
L 2234 1581 
z
M 3609 0 
L 1484 0 
L 1484 331 
L 2234 331 
L 2234 1247 
L 197 1247 
L 197 1588 
L 2241 4750 
L 2859 4750 
L 2859 1581 
L 3750 1581 
L 3750 1247 
L 2859 1247 
L 2859 331 
L 3609 331 
L 3609 0 
z
" transform="scale(0.015625)"/>
        <path id="DejaVuSerif-62" d="M 738 331 
L 738 4531 
L 184 4531 
L 184 4863 
L 1313 4863 
L 1313 2803 
Q 1481 3116 1742 3264 
Q 2003 3413 2388 3413 
Q 3000 3413 3387 2928 
Q 3775 2444 3775 1663 
Q 3775 881 3387 395 
Q 3000 -91 2388 -91 
Q 2003 -91 1742 57 
Q 1481 206 1313 519 
L 1313 0 
L 184 0 
L 184 331 
L 738 331 
z
M 1313 1497 
Q 1313 897 1542 583 
Q 1772 269 2209 269 
Q 2650 269 2876 622 
Q 3103 975 3103 1663 
Q 3103 2353 2876 2703 
Q 2650 3053 2209 3053 
Q 1772 3053 1542 2737 
Q 1313 2422 1313 1825 
L 1313 1497 
z
" transform="scale(0.015625)"/>
       </defs>
       <use xlink:href="#DejaVuSerif-67"/>
       <use xlink:href="#DejaVuSerif-65" transform="translate(64.013672 0)"/>
       <use xlink:href="#DejaVuSerif-6d" transform="translate(123.193359 0)"/>
       <use xlink:href="#DejaVuSerif-6d" transform="translate(218.017578 0)"/>
       <use xlink:href="#DejaVuSerif-61" transform="translate(312.841797 0)"/>
       <use xlink:href="#DejaVuSerif-2d" transform="translate(372.460938 0)"/>
       <use xlink:href="#DejaVuSerif-33" transform="translate(406.25 0)"/>
       <use xlink:href="#DejaVuSerif-2d" transform="translate(469.873047 0)"/>
       <use xlink:href="#DejaVuSerif-34" transform="translate(503.662109 0)"/>
       <use xlink:href="#DejaVuSerif-62" transform="translate(567.285156 0)"/>
      </g>
     </g>
    </g>
    <g id="xtick_2">
     <g id="line2d_2">
      <g>
       <use xlink:href="#ma788adb7e2" x="145.689093" y="205.739066" style="stroke: #000000; stroke-width: 0.8"/>
      </g>
     </g>
     <g id="text_2">
      <!-- ministral-3b -->
      <g transform="translate(105.192424 259.247845) rotate(-45) scale(0.09 -0.09)">
       <defs>
        <path id="DejaVuSerif-69" d="M 622 4353 
Q 622 4497 726 4603 
Q 831 4709 978 4709 
Q 1122 4709 1226 4603 
Q 1331 4497 1331 4353 
Q 1331 4206 1228 4103 
Q 1125 4000 978 4000 
Q 831 4000 726 4103 
Q 622 4206 622 4353 
z
M 1356 331 
L 1900 331 
L 1900 0 
L 231 0 
L 231 331 
L 781 331 
L 781 2988 
L 231 2988 
L 231 3322 
L 1356 3322 
L 1356 331 
z
" transform="scale(0.015625)"/>
        <path id="DejaVuSerif-6e" d="M 263 0 
L 263 331 
L 781 331 
L 781 2988 
L 231 2988 
L 231 3322 
L 1356 3322 
L 1356 2731 
Q 1516 3069 1770 3241 
Q 2025 3413 2363 3413 
Q 2913 3413 3172 3097 
Q 3431 2781 3431 2113 
L 3431 331 
L 3944 331 
L 3944 0 
L 2356 0 
L 2356 331 
L 2853 331 
L 2853 1931 
Q 2853 2541 2703 2767 
Q 2553 2994 2175 2994 
Q 1775 2994 1565 2701 
Q 1356 2409 1356 1850 
L 1356 331 
L 1856 331 
L 1856 0 
L 263 0 
z
" transform="scale(0.015625)"/>
        <path id="DejaVuSerif-73" d="M 359 184 
L 359 959 
L 691 959 
Q 703 588 923 403 
Q 1144 219 1575 219 
Q 1963 219 2166 364 
Q 2369 509 2369 788 
Q 2369 1006 2220 1140 
Q 2072 1275 1594 1428 
L 1178 1569 
Q 750 1706 558 1912 
Q 366 2119 366 2438 
Q 366 2894 700 3153 
Q 1034 3413 1625 3413 
Q 1888 3413 2178 3344 
Q 2469 3275 2778 3144 
L 2778 2419 
L 2447 2419 
Q 2434 2741 2221 2922 
Q 2009 3103 1644 3103 
Q 1281 3103 1095 2975 
Q 909 2847 909 2591 
Q 909 2381 1050 2254 
Q 1191 2128 1613 1997 
L 2069 1856 
Q 2541 1709 2748 1489 
Q 2956 1269 2956 922 
Q 2956 450 2595 179 
Q 2234 -91 1600 -91 
Q 1278 -91 972 -22 
Q 666 47 359 184 
z
" transform="scale(0.015625)"/>
        <path id="DejaVuSerif-74" d="M 691 2988 
L 184 2988 
L 184 3322 
L 691 3322 
L 691 4353 
L 1269 4353 
L 1269 3322 
L 2350 3322 
L 2350 2988 
L 1269 2988 
L 1269 878 
Q 1269 456 1350 337 
Q 1431 219 1650 219 
Q 1875 219 1978 351 
Q 2081 484 2088 781 
L 2522 781 
Q 2497 328 2275 118 
Q 2053 -91 1600 -91 
Q 1103 -91 897 129 
Q 691 350 691 878 
L 691 2988 
z
" transform="scale(0.015625)"/>
        <path id="DejaVuSerif-72" d="M 3059 3328 
L 3059 2497 
L 2728 2497 
Q 2713 2744 2591 2866 
Q 2469 2988 2234 2988 
Q 1809 2988 1582 2694 
Q 1356 2400 1356 1850 
L 1356 331 
L 2022 331 
L 2022 0 
L 263 0 
L 263 331 
L 781 331 
L 781 2994 
L 231 2994 
L 231 3322 
L 1356 3322 
L 1356 2731 
Q 1525 3078 1790 3245 
Q 2056 3413 2438 3413 
Q 2578 3413 2733 3391 
Q 2888 3369 3059 3328 
z
" transform="scale(0.015625)"/>
        <path id="DejaVuSerif-6c" d="M 1313 331 
L 1856 331 
L 1856 0 
L 184 0 
L 184 331 
L 738 331 
L 738 4531 
L 184 4531 
L 184 4863 
L 1313 4863 
L 1313 331 
z
" transform="scale(0.015625)"/>
       </defs>
       <use xlink:href="#DejaVuSerif-6d"/>
       <use xlink:href="#DejaVuSerif-69" transform="translate(94.824219 0)"/>
       <use xlink:href="#DejaVuSerif-6e" transform="translate(126.806641 0)"/>
       <use xlink:href="#DejaVuSerif-69" transform="translate(191.210938 0)"/>
       <use xlink:href="#DejaVuSerif-73" transform="translate(223.193359 0)"/>
       <use xlink:href="#DejaVuSerif-74" transform="translate(274.511719 0)"/>
       <use xlink:href="#DejaVuSerif-72" transform="translate(314.697266 0)"/>
       <use xlink:href="#DejaVuSerif-61" transform="translate(362.5 0)"/>
       <use xlink:href="#DejaVuSerif-6c" transform="translate(422.119141 0)"/>
       <use xlink:href="#DejaVuSerif-2d" transform="translate(454.101562 0)"/>
       <use xlink:href="#DejaVuSerif-33" transform="translate(487.890625 0)"/>
       <use xlink:href="#DejaVuSerif-62" transform="translate(551.513672 0)"/>
      </g>
     </g>
    </g>
    <g id="xtick_3">
     <g id="line2d_3">
      <g>
       <use xlink:href="#ma788adb7e2" x="205.137246" y="205.739066" style="stroke: #000000; stroke-width: 0.8"/>
      </g>
     </g>
     <g id="text_3">
      <!-- phi-4-multimodal -->
      <g transform="translate(148.72272 275.165702) rotate(-45) scale(0.09 -0.09)">
       <defs>
        <path id="DejaVuSerif-70" d="M 1313 1825 
L 1313 1497 
Q 1313 897 1542 583 
Q 1772 269 2209 269 
Q 2650 269 2876 622 
Q 3103 975 3103 1663 
Q 3103 2353 2876 2703 
Q 2650 3053 2209 3053 
Q 1772 3053 1542 2737 
Q 1313 2422 1313 1825 
z
M 738 2988 
L 184 2988 
L 184 3322 
L 1313 3322 
L 1313 2803 
Q 1481 3116 1742 3264 
Q 2003 3413 2388 3413 
Q 3000 3413 3387 2928 
Q 3775 2444 3775 1663 
Q 3775 881 3387 395 
Q 3000 -91 2388 -91 
Q 2003 -91 1742 57 
Q 1481 206 1313 519 
L 1313 -997 
L 1856 -997 
L 1856 -1331 
L 184 -1331 
L 184 -997 
L 738 -997 
L 738 2988 
z
" transform="scale(0.015625)"/>
        <path id="DejaVuSerif-68" d="M 263 0 
L 263 331 
L 781 331 
L 781 4531 
L 231 4531 
L 231 4863 
L 1356 4863 
L 1356 2731 
Q 1516 3069 1770 3241 
Q 2025 3413 2363 3413 
Q 2913 3413 3172 3097 
Q 3431 2781 3431 2113 
L 3431 331 
L 3944 331 
L 3944 0 
L 2356 0 
L 2356 331 
L 2853 331 
L 2853 1931 
Q 2853 2541 2704 2764 
Q 2556 2988 2175 2988 
Q 1775 2988 1565 2697 
Q 1356 2406 1356 1850 
L 1356 331 
L 1856 331 
L 1856 0 
L 263 0 
z
" transform="scale(0.015625)"/>
        <path id="DejaVuSerif-75" d="M 2266 3322 
L 3341 3322 
L 3341 331 
L 3884 331 
L 3884 0 
L 2766 0 
L 2766 588 
Q 2606 256 2353 82 
Q 2100 -91 1766 -91 
Q 1213 -91 952 223 
Q 691 538 691 1209 
L 691 2988 
L 172 2988 
L 172 3322 
L 1269 3322 
L 1269 1388 
Q 1269 781 1417 556 
Q 1566 331 1947 331 
Q 2347 331 2556 625 
Q 2766 919 2766 1478 
L 2766 2988 
L 2266 2988 
L 2266 3322 
z
" transform="scale(0.015625)"/>
        <path id="DejaVuSerif-6f" d="M 1925 219 
Q 2388 219 2623 584 
Q 2859 950 2859 1663 
Q 2859 2375 2623 2739 
Q 2388 3103 1925 3103 
Q 1463 3103 1227 2739 
Q 991 2375 991 1663 
Q 991 950 1228 584 
Q 1466 219 1925 219 
z
M 1925 -91 
Q 1200 -91 759 389 
Q 319 869 319 1663 
Q 319 2456 758 2934 
Q 1197 3413 1925 3413 
Q 2653 3413 3092 2934 
Q 3531 2456 3531 1663 
Q 3531 869 3092 389 
Q 2653 -91 1925 -91 
z
" transform="scale(0.015625)"/>
        <path id="DejaVuSerif-64" d="M 3359 331 
L 3909 331 
L 3909 0 
L 2784 0 
L 2784 519 
Q 2616 206 2355 57 
Q 2094 -91 1709 -91 
Q 1097 -91 708 395 
Q 319 881 319 1663 
Q 319 2444 706 2928 
Q 1094 3413 1709 3413 
Q 2094 3413 2355 3264 
Q 2616 3116 2784 2803 
L 2784 4531 
L 2241 4531 
L 2241 4863 
L 3359 4863 
L 3359 331 
z
M 2784 1497 
L 2784 1825 
Q 2784 2422 2554 2737 
Q 2325 3053 1888 3053 
Q 1444 3053 1217 2703 
Q 991 2353 991 1663 
Q 991 975 1217 622 
Q 1444 269 1888 269 
Q 2325 269 2554 583 
Q 2784 897 2784 1497 
z
" transform="scale(0.015625)"/>
       </defs>
       <use xlink:href="#DejaVuSerif-70"/>
       <use xlink:href="#DejaVuSerif-68" transform="translate(64.013672 0)"/>
       <use xlink:href="#DejaVuSerif-69" transform="translate(128.417969 0)"/>
       <use xlink:href="#DejaVuSerif-2d" transform="translate(160.400391 0)"/>
       <use xlink:href="#DejaVuSerif-34" transform="translate(194.189453 0)"/>
       <use xlink:href="#DejaVuSerif-2d" transform="translate(257.8125 0)"/>
       <use xlink:href="#DejaVuSerif-6d" transform="translate(291.601562 0)"/>
       <use xlink:href="#DejaVuSerif-75" transform="translate(386.425781 0)"/>
       <use xlink:href="#DejaVuSerif-6c" transform="translate(450.830078 0)"/>
       <use xlink:href="#DejaVuSerif-74" transform="translate(482.8125 0)"/>
       <use xlink:href="#DejaVuSerif-69" transform="translate(522.998047 0)"/>
       <use xlink:href="#DejaVuSerif-6d" transform="translate(554.980469 0)"/>
       <use xlink:href="#DejaVuSerif-6f" transform="translate(649.804688 0)"/>
       <use xlink:href="#DejaVuSerif-64" transform="translate(710.009766 0)"/>
       <use xlink:href="#DejaVuSerif-61" transform="translate(774.023438 0)"/>
       <use xlink:href="#DejaVuSerif-6c" transform="translate(833.642578 0)"/>
      </g>
     </g>
    </g>
    <g id="xtick_4">
     <g id="line2d_4">
      <g>
       <use xlink:href="#ma788adb7e2" x="264.585399" y="205.739066" style="stroke: #000000; stroke-width: 0.8"/>
      </g>
     </g>
     <g id="text_4">
      <!-- llama-3.2-3b -->
      <g transform="translate(223.021773 260.314803) rotate(-45) scale(0.09 -0.09)">
       <defs>
        <path id="DejaVuSerif-2e" d="M 603 325 
Q 603 500 722 622 
Q 841 744 1019 744 
Q 1191 744 1312 622 
Q 1434 500 1434 325 
Q 1434 153 1312 31 
Q 1191 -91 1019 -91 
Q 841 -91 722 29 
Q 603 150 603 325 
z
" transform="scale(0.015625)"/>
        <path id="DejaVuSerif-32" d="M 819 3553 
L 469 3553 
L 469 4384 
Q 803 4563 1142 4656 
Q 1481 4750 1806 4750 
Q 2534 4750 2956 4397 
Q 3378 4044 3378 3438 
Q 3378 2753 2422 1800 
Q 2347 1728 2309 1691 
L 1131 513 
L 3078 513 
L 3078 1088 
L 3444 1088 
L 3444 0 
L 434 0 
L 434 341 
L 1850 1753 
Q 2319 2222 2519 2614 
Q 2719 3006 2719 3438 
Q 2719 3909 2473 4175 
Q 2228 4441 1797 4441 
Q 1350 4441 1106 4219 
Q 863 3997 819 3553 
z
" transform="scale(0.015625)"/>
       </defs>
       <use xlink:href="#DejaVuSerif-6c"/>
       <use xlink:href="#DejaVuSerif-6c" transform="translate(31.982422 0)"/>
       <use xlink:href="#DejaVuSerif-61" transform="translate(63.964844 0)"/>
       <use xlink:href="#DejaVuSerif-6d" transform="translate(123.583984 0)"/>
       <use xlink:href="#DejaVuSerif-61" transform="translate(218.408203 0)"/>
       <use xlink:href="#DejaVuSerif-2d" transform="translate(278.027344 0)"/>
       <use xlink:href="#DejaVuSerif-33" transform="translate(311.816406 0)"/>
       <use xlink:href="#DejaVuSerif-2e" transform="translate(375.439453 0)"/>
       <use xlink:href="#DejaVuSerif-32" transform="translate(407.226562 0)"/>
       <use xlink:href="#DejaVuSerif-2d" transform="translate(470.849609 0)"/>
       <use xlink:href="#DejaVuSerif-33" transform="translate(504.638672 0)"/>
       <use xlink:href="#DejaVuSerif-62" transform="translate(568.261719 0)"/>
      </g>
     </g>
    </g>
    <g id="xtick_5">
     <g id="line2d_5">
      <g>
       <use xlink:href="#ma788adb7e2" x="324.033552" y="205.739066" style="stroke: #000000; stroke-width: 0.8"/>
      </g>
     </g>
     <g id="text_5">
      <!-- ui-tars-1.5-7b -->
      <g transform="translate(279.220329 263.5644) rotate(-45) scale(0.09 -0.09)">
       <defs>
        <path id="DejaVuSerif-31" d="M 909 0 
L 909 331 
L 1722 331 
L 1722 4213 
L 781 3603 
L 781 4013 
L 1919 4750 
L 2350 4750 
L 2350 331 
L 3163 331 
L 3163 0 
L 909 0 
z
" transform="scale(0.015625)"/>
        <path id="DejaVuSerif-35" d="M 3219 4666 
L 3219 4153 
L 1081 4153 
L 1081 2816 
Q 1244 2928 1461 2984 
Q 1678 3041 1947 3041 
Q 2703 3041 3140 2622 
Q 3578 2203 3578 1478 
Q 3578 738 3136 323 
Q 2694 -91 1894 -91 
Q 1572 -91 1234 -12 
Q 897 66 544 225 
L 544 1131 
L 897 1131 
Q 925 688 1179 453 
Q 1434 219 1894 219 
Q 2388 219 2653 544 
Q 2919 869 2919 1478 
Q 2919 2084 2655 2407 
Q 2391 2731 1894 2731 
Q 1613 2731 1398 2631 
Q 1184 2531 1019 2322 
L 750 2322 
L 750 4666 
L 3219 4666 
z
" transform="scale(0.015625)"/>
        <path id="DejaVuSerif-37" d="M 3609 4347 
L 1784 0 
L 1319 0 
L 3059 4153 
L 903 4153 
L 903 3578 
L 538 3578 
L 538 4666 
L 3609 4666 
L 3609 4347 
z
" transform="scale(0.015625)"/>
       </defs>
       <use xlink:href="#DejaVuSerif-75"/>
       <use xlink:href="#DejaVuSerif-69" transform="translate(64.404297 0)"/>
       <use xlink:href="#DejaVuSerif-2d" transform="translate(96.386719 0)"/>
       <use xlink:href="#DejaVuSerif-74" transform="translate(130.175781 0)"/>
       <use xlink:href="#DejaVuSerif-61" transform="translate(170.361328 0)"/>
       <use xlink:href="#DejaVuSerif-72" transform="translate(229.980469 0)"/>
       <use xlink:href="#DejaVuSerif-73" transform="translate(277.783203 0)"/>
       <use xlink:href="#DejaVuSerif-2d" transform="translate(329.101562 0)"/>
       <use xlink:href="#DejaVuSerif-31" transform="translate(362.890625 0)"/>
       <use xlink:href="#DejaVuSerif-2e" transform="translate(426.513672 0)"/>
       <use xlink:href="#DejaVuSerif-35" transform="translate(458.300781 0)"/>
       <use xlink:href="#DejaVuSerif-2d" transform="translate(521.923828 0)"/>
       <use xlink:href="#DejaVuSerif-37" transform="translate(555.712891 0)"/>
       <use xlink:href="#DejaVuSerif-62" transform="translate(619.335938 0)"/>
      </g>
     </g>
    </g>
    <g id="xtick_6">
     <g id="line2d_6">
      <g>
       <use xlink:href="#ma788adb7e2" x="383.481705" y="205.739066" style="stroke: #000000; stroke-width: 0.8"/>
      </g>
     </g>
     <g id="text_6">
      <!-- GPT-5.1 -->
      <g transform="translate(357.095132 245.13775) rotate(-45) scale(0.09 -0.09)">
       <defs>
        <path id="DejaVuSerif-47" d="M 4097 3272 
Q 3988 3856 3641 4136 
Q 3294 4416 2675 4416 
Q 1869 4416 1472 3897 
Q 1075 3378 1075 2328 
Q 1075 1300 1484 772 
Q 1894 244 2688 244 
Q 3041 244 3362 331 
Q 3684 419 3975 594 
L 3975 1797 
L 3097 1797 
L 3097 2131 
L 4609 2131 
L 4609 391 
Q 4194 150 3714 29 
Q 3234 -91 2688 -91 
Q 1631 -91 995 570 
Q 359 1231 359 2328 
Q 359 3434 996 4092 
Q 1634 4750 2713 4750 
Q 3113 4750 3539 4658 
Q 3966 4566 4447 4378 
L 4447 3272 
L 4097 3272 
z
" transform="scale(0.015625)"/>
        <path id="DejaVuSerif-50" d="M 1581 2375 
L 2406 2375 
Q 2872 2375 3115 2626 
Q 3359 2878 3359 3353 
Q 3359 3831 3115 4081 
Q 2872 4331 2406 4331 
L 1581 4331 
L 1581 2375 
z
M 353 0 
L 353 331 
L 947 331 
L 947 4331 
L 353 4331 
L 353 4666 
L 2559 4666 
Q 3259 4666 3668 4311 
Q 4078 3956 4078 3353 
Q 4078 2753 3668 2397 
Q 3259 2041 2559 2041 
L 1581 2041 
L 1581 331 
L 2303 331 
L 2303 0 
L 353 0 
z
" transform="scale(0.015625)"/>
        <path id="DejaVuSerif-54" d="M 1222 0 
L 1222 331 
L 1819 331 
L 1819 4294 
L 447 4294 
L 447 3566 
L 63 3566 
L 63 4666 
L 4206 4666 
L 4206 3566 
L 3822 3566 
L 3822 4294 
L 2450 4294 
L 2450 331 
L 3047 331 
L 3047 0 
L 1222 0 
z
" transform="scale(0.015625)"/>
       </defs>
       <use xlink:href="#DejaVuSerif-47"/>
       <use xlink:href="#DejaVuSerif-50" transform="translate(79.882812 0)"/>
       <use xlink:href="#DejaVuSerif-54" transform="translate(147.167969 0)"/>
       <use xlink:href="#DejaVuSerif-2d" transform="translate(200.992188 0)"/>
       <use xlink:href="#DejaVuSerif-35" transform="translate(234.78125 0)"/>
       <use xlink:href="#DejaVuSerif-2e" transform="translate(298.404297 0)"/>
       <use xlink:href="#DejaVuSerif-31" transform="translate(330.191406 0)"/>
      </g>
     </g>
    </g>
    <g id="text_7">
     <!-- Model -->
     <g transform="translate(219.159838 287.327801) scale(0.09 -0.09)">
      <defs>
       <path id="DejaVuSerif-Bold-4d" d="M 269 0 
L 269 378 
L 863 378 
L 863 4288 
L 269 4288 
L 269 4666 
L 2194 4666 
L 3525 1672 
L 4863 4666 
L 6784 4666 
L 6784 4288 
L 6188 4288 
L 6188 378 
L 6784 378 
L 6784 0 
L 4384 0 
L 4384 378 
L 4978 378 
L 4978 3938 
L 3531 684 
L 2741 684 
L 1300 3938 
L 1300 378 
L 1894 378 
L 1894 0 
L 269 0 
z
" transform="scale(0.015625)"/>
       <path id="DejaVuSerif-Bold-6f" d="M 2138 263 
Q 2488 263 2630 563 
Q 2772 863 2772 1663 
Q 2772 2463 2631 2761 
Q 2491 3059 2138 3059 
Q 1784 3059 1640 2757 
Q 1497 2456 1497 1663 
Q 1497 869 1640 566 
Q 1784 263 2138 263 
z
M 2138 -91 
Q 1259 -91 761 376 
Q 263 844 263 1663 
Q 263 2484 761 2948 
Q 1259 3413 2138 3413 
Q 3019 3413 3516 2948 
Q 4013 2484 4013 1663 
Q 4013 844 3514 376 
Q 3016 -91 2138 -91 
z
" transform="scale(0.015625)"/>
       <path id="DejaVuSerif-Bold-64" d="M 2747 1497 
L 2747 1825 
Q 2747 2406 2597 2665 
Q 2447 2925 2119 2925 
Q 1775 2925 1636 2651 
Q 1497 2378 1497 1663 
Q 1497 947 1637 672 
Q 1778 397 2119 397 
Q 2447 397 2597 656 
Q 2747 916 2747 1497 
z
M 3853 378 
L 4325 378 
L 4325 0 
L 2747 0 
L 2747 422 
Q 2606 163 2367 36 
Q 2128 -91 1778 -91 
Q 1072 -91 667 378 
Q 263 847 263 1663 
Q 263 2481 667 2947 
Q 1072 3413 1778 3413 
Q 2128 3413 2367 3286 
Q 2606 3159 2747 2900 
L 2747 4488 
L 2272 4488 
L 2272 4863 
L 3853 4863 
L 3853 378 
z
" transform="scale(0.015625)"/>
       <path id="DejaVuSerif-Bold-65" d="M 2566 1875 
Q 2566 2531 2444 2795 
Q 2322 3059 2028 3059 
Q 1744 3059 1620 2800 
Q 1497 2541 1497 1931 
L 1497 1875 
L 2566 1875 
z
M 3781 1503 
L 1497 1503 
L 1497 1478 
Q 1497 834 1690 548 
Q 1884 263 2316 263 
Q 2675 263 2897 453 
Q 3119 644 3181 1006 
L 3700 1006 
Q 3566 441 3166 175 
Q 2766 -91 2047 -91 
Q 1184 -91 723 364 
Q 263 819 263 1663 
Q 263 2488 734 2950 
Q 1206 3413 2047 3413 
Q 2872 3413 3312 2927 
Q 3753 2441 3781 1503 
z
" transform="scale(0.015625)"/>
       <path id="DejaVuSerif-Bold-6c" d="M 1797 378 
L 2272 378 
L 2272 0 
L 219 0 
L 219 378 
L 691 378 
L 691 4488 
L 219 4488 
L 219 4863 
L 1797 4863 
L 1797 378 
z
" transform="scale(0.015625)"/>
      </defs>
      <use xlink:href="#DejaVuSerif-Bold-4d"/>
      <use xlink:href="#DejaVuSerif-Bold-6f" transform="translate(110.693359 0)"/>
      <use xlink:href="#DejaVuSerif-Bold-64" transform="translate(177.392578 0)"/>
      <use xlink:href="#DejaVuSerif-Bold-65" transform="translate(247.314453 0)"/>
      <use xlink:href="#DejaVuSerif-Bold-6c" transform="translate(310.9375 0)"/>
     </g>
    </g>
   </g>
   <g id="matplotlib.axis_2">
    <g id="ytick_1">
     <g id="line2d_7">
      <path d="M 43.723125 205.739066 
L 425.99952 205.739066 
" clip-path="url(#p9acc9d58e6)" style="fill: none; stroke-dasharray: 2.96,1.28; stroke-dashoffset: 0; stroke: #b0b0b0; stroke-opacity: 0.3; stroke-width: 0.8"/>
     </g>
     <g id="line2d_8">
      <defs>
       <path id="m2b9578644d" d="M 0 0 
L -3.5 0 
" style="stroke: #000000; stroke-width: 0.8"/>
      </defs>
      <g>
       <use xlink:href="#m2b9578644d" x="43.723125" y="205.739066" style="stroke: #000000; stroke-width: 0.8"/>
      </g>
     </g>
     <g id="text_8">
      <!-- 0.0 -->
      <g transform="translate(19.910313 209.158363) scale(0.09 -0.09)">
       <defs>
        <path id="DejaVuSerif-30" d="M 2034 219 
Q 2513 219 2750 744 
Q 2988 1269 2988 2328 
Q 2988 3391 2750 3916 
Q 2513 4441 2034 4441 
Q 1556 4441 1318 3916 
Q 1081 3391 1081 2328 
Q 1081 1269 1318 744 
Q 1556 219 2034 219 
z
M 2034 -91 
Q 1275 -91 848 546 
Q 422 1184 422 2328 
Q 422 3475 848 4112 
Q 1275 4750 2034 4750 
Q 2797 4750 3222 4112 
Q 3647 3475 3647 2328 
Q 3647 1184 3222 546 
Q 2797 -91 2034 -91 
z
" transform="scale(0.015625)"/>
       </defs>
       <use xlink:href="#DejaVuSerif-30"/>
       <use xlink:href="#DejaVuSerif-2e" transform="translate(63.623047 0)"/>
       <use xlink:href="#DejaVuSerif-30" transform="translate(95.410156 0)"/>
      </g>
     </g>
    </g>
    <g id="ytick_2">
     <g id="line2d_9">
      <path d="M 43.723125 171.398971 
L 425.99952 171.398971 
" clip-path="url(#p9acc9d58e6)" style="fill: none; stroke-dasharray: 2.96,1.28; stroke-dashoffset: 0; stroke: #b0b0b0; stroke-opacity: 0.3; stroke-width: 0.8"/>
     </g>
     <g id="line2d_10">
      <g>
       <use xlink:href="#m2b9578644d" x="43.723125" y="171.398971" style="stroke: #000000; stroke-width: 0.8"/>
      </g>
     </g>
     <g id="text_9">
      <!-- 0.1 -->
      <g transform="translate(19.910313 174.818268) scale(0.09 -0.09)">
       <use xlink:href="#DejaVuSerif-30"/>
       <use xlink:href="#DejaVuSerif-2e" transform="translate(63.623047 0)"/>
       <use xlink:href="#DejaVuSerif-31" transform="translate(95.410156 0)"/>
      </g>
     </g>
    </g>
    <g id="ytick_3">
     <g id="line2d_11">
      <path d="M 43.723125 137.058877 
L 425.99952 137.058877 
" clip-path="url(#p9acc9d58e6)" style="fill: none; stroke-dasharray: 2.96,1.28; stroke-dashoffset: 0; stroke: #b0b0b0; stroke-opacity: 0.3; stroke-width: 0.8"/>
     </g>
     <g id="line2d_12">
      <g>
       <use xlink:href="#m2b9578644d" x="43.723125" y="137.058877" style="stroke: #000000; stroke-width: 0.8"/>
      </g>
     </g>
     <g id="text_10">
      <!-- 0.2 -->
      <g transform="translate(19.910313 140.478174) scale(0.09 -0.09)">
       <use xlink:href="#DejaVuSerif-30"/>
       <use xlink:href="#DejaVuSerif-2e" transform="translate(63.623047 0)"/>
       <use xlink:href="#DejaVuSerif-32" transform="translate(95.410156 0)"/>
      </g>
     </g>
    </g>
    <g id="ytick_4">
     <g id="line2d_13">
      <path d="M 43.723125 102.718783 
L 425.99952 102.718783 
" clip-path="url(#p9acc9d58e6)" style="fill: none; stroke-dasharray: 2.96,1.28; stroke-dashoffset: 0; stroke: #b0b0b0; stroke-opacity: 0.3; stroke-width: 0.8"/>
     </g>
     <g id="line2d_14">
      <g>
       <use xlink:href="#m2b9578644d" x="43.723125" y="102.718783" style="stroke: #000000; stroke-width: 0.8"/>
      </g>
     </g>
     <g id="text_11">
      <!-- 0.3 -->
      <g transform="translate(19.910313 106.138079) scale(0.09 -0.09)">
       <use xlink:href="#DejaVuSerif-30"/>
       <use xlink:href="#DejaVuSerif-2e" transform="translate(63.623047 0)"/>
       <use xlink:href="#DejaVuSerif-33" transform="translate(95.410156 0)"/>
      </g>
     </g>
    </g>
    <g id="ytick_5">
     <g id="line2d_15">
      <path d="M 43.723125 68.378688 
L 425.99952 68.378688 
" clip-path="url(#p9acc9d58e6)" style="fill: none; stroke-dasharray: 2.96,1.28; stroke-dashoffset: 0; stroke: #b0b0b0; stroke-opacity: 0.3; stroke-width: 0.8"/>
     </g>
     <g id="line2d_16">
      <g>
       <use xlink:href="#m2b9578644d" x="43.723125" y="68.378688" style="stroke: #000000; stroke-width: 0.8"/>
      </g>
     </g>
     <g id="text_12">
      <!-- 0.4 -->
      <g transform="translate(19.910313 71.797985) scale(0.09 -0.09)">
       <use xlink:href="#DejaVuSerif-30"/>
       <use xlink:href="#DejaVuSerif-2e" transform="translate(63.623047 0)"/>
       <use xlink:href="#DejaVuSerif-34" transform="translate(95.410156 0)"/>
      </g>
     </g>
    </g>
    <g id="ytick_6">
     <g id="line2d_17">
      <path d="M 43.723125 34.038594 
L 425.99952 34.038594 
" clip-path="url(#p9acc9d58e6)" style="fill: none; stroke-dasharray: 2.96,1.28; stroke-dashoffset: 0; stroke: #b0b0b0; stroke-opacity: 0.3; stroke-width: 0.8"/>
     </g>
     <g id="line2d_18">
      <g>
       <use xlink:href="#m2b9578644d" x="43.723125" y="34.038594" style="stroke: #000000; stroke-width: 0.8"/>
      </g>
     </g>
     <g id="text_13">
      <!-- 0.5 -->
      <g transform="translate(19.910313 37.457891) scale(0.09 -0.09)">
       <use xlink:href="#DejaVuSerif-30"/>
       <use xlink:href="#DejaVuSerif-2e" transform="translate(63.623047 0)"/>
       <use xlink:href="#DejaVuSerif-35" transform="translate(95.410156 0)"/>
      </g>
     </g>
    </g>
    <g id="text_14">
     <!-- Cohens Kappa -->
     <g transform="translate(14.038594 156.014689) rotate(-90) scale(0.09 -0.09)">
      <defs>
       <path id="DejaVuSerif-Bold-43" d="M 4769 1331 
Q 4584 609 4106 259 
Q 3628 -91 2822 -91 
Q 1641 -91 955 561 
Q 269 1213 269 2328 
Q 269 3447 955 4098 
Q 1641 4750 2822 4750 
Q 3238 4750 3688 4650 
Q 4138 4550 4641 4347 
L 4641 3200 
L 4244 3200 
Q 4122 3788 3800 4080 
Q 3478 4372 2950 4372 
Q 2269 4372 1937 3870 
Q 1606 3369 1606 2328 
Q 1606 1288 1937 788 
Q 2269 288 2956 288 
Q 3422 288 3717 547 
Q 4013 806 4147 1331 
L 4769 1331 
z
" transform="scale(0.015625)"/>
       <path id="DejaVuSerif-Bold-68" d="M 219 0 
L 219 378 
L 691 378 
L 691 4488 
L 197 4488 
L 197 4863 
L 1797 4863 
L 1797 2853 
Q 1997 3150 2253 3281 
Q 2509 3413 2900 3413 
Q 3459 3413 3745 3083 
Q 4031 2753 4031 2113 
L 4031 378 
L 4506 378 
L 4506 0 
L 2522 0 
L 2522 378 
L 2925 378 
L 2925 2144 
Q 2925 2566 2817 2730 
Q 2709 2894 2444 2894 
Q 2109 2894 1953 2648 
Q 1797 2403 1797 1869 
L 1797 378 
L 2203 378 
L 2203 0 
L 219 0 
z
" transform="scale(0.015625)"/>
       <path id="DejaVuSerif-Bold-6e" d="M 219 0 
L 219 378 
L 691 378 
L 691 2944 
L 219 2944 
L 219 3322 
L 1797 3322 
L 1797 2853 
Q 1997 3150 2253 3281 
Q 2509 3413 2900 3413 
Q 3459 3413 3745 3083 
Q 4031 2753 4031 2113 
L 4031 378 
L 4506 378 
L 4506 0 
L 2522 0 
L 2522 378 
L 2925 378 
L 2925 2144 
Q 2925 2566 2817 2730 
Q 2709 2894 2444 2894 
Q 2109 2894 1953 2648 
Q 1797 2403 1797 1869 
L 1797 378 
L 2203 378 
L 2203 0 
L 219 0 
z
" transform="scale(0.015625)"/>
       <path id="DejaVuSerif-Bold-73" d="M 300 97 
L 300 1025 
L 653 1025 
Q 697 653 931 458 
Q 1166 263 1569 263 
Q 1906 263 2086 380 
Q 2266 497 2266 716 
Q 2266 916 2152 1025 
Q 2038 1134 1709 1216 
L 1253 1331 
Q 738 1459 506 1698 
Q 275 1938 275 2344 
Q 275 2884 650 3148 
Q 1025 3413 1806 3413 
Q 2100 3413 2433 3364 
Q 2766 3316 3169 3213 
L 3169 2375 
L 2816 2375 
Q 2788 2716 2573 2887 
Q 2359 3059 1959 3059 
Q 1622 3059 1448 2951 
Q 1275 2844 1275 2638 
Q 1275 2469 1375 2372 
Q 1475 2275 1734 2209 
L 2188 2094 
Q 2841 1928 3091 1684 
Q 3341 1441 3341 1006 
Q 3341 444 2939 176 
Q 2538 -91 1691 -91 
Q 1381 -91 1034 -44 
Q 688 3 300 97 
z
" transform="scale(0.015625)"/>
       <path id="DejaVuSerif-Bold-20" transform="scale(0.015625)"/>
       <path id="DejaVuSerif-Bold-4b" d="M 300 0 
L 300 378 
L 897 378 
L 897 4288 
L 300 4288 
L 300 4666 
L 2700 4666 
L 2700 4288 
L 2100 4288 
L 2100 2584 
L 4078 4288 
L 3578 4288 
L 3578 4666 
L 5319 4666 
L 5319 4288 
L 4697 4288 
L 3022 2847 
L 5300 378 
L 5759 378 
L 5759 0 
L 4178 0 
L 2100 2266 
L 2100 378 
L 2700 378 
L 2700 0 
L 300 0 
z
" transform="scale(0.015625)"/>
       <path id="DejaVuSerif-Bold-61" d="M 3525 2041 
L 3525 378 
L 4000 378 
L 4000 0 
L 2419 0 
L 2419 422 
Q 2200 159 1931 34 
Q 1663 -91 1319 -91 
Q 809 -91 536 182 
Q 263 456 263 966 
Q 263 1525 655 1803 
Q 1047 2081 1838 2081 
L 2419 2081 
L 2419 2278 
Q 2419 2681 2228 2873 
Q 2038 3066 1638 3066 
Q 1306 3066 1126 2930 
Q 947 2794 872 2484 
L 519 2484 
L 519 3200 
Q 816 3306 1134 3359 
Q 1453 3413 1806 3413 
Q 2697 3413 3111 3081 
Q 3525 2750 3525 2041 
z
M 2419 1044 
L 2419 1709 
L 2003 1709 
Q 1694 1709 1528 1540 
Q 1363 1372 1363 1056 
Q 1363 741 1483 584 
Q 1603 428 1850 428 
Q 2106 428 2262 597 
Q 2419 766 2419 1044 
z
" transform="scale(0.015625)"/>
       <path id="DejaVuSerif-Bold-70" d="M 1728 1825 
L 1728 1497 
Q 1728 916 1876 656 
Q 2025 397 2356 397 
Q 2697 397 2836 672 
Q 2975 947 2975 1663 
Q 2975 2378 2836 2651 
Q 2697 2925 2356 2925 
Q 2025 2925 1876 2665 
Q 1728 2406 1728 1825 
z
M 622 2944 
L 147 2944 
L 147 3322 
L 1728 3322 
L 1728 2900 
Q 1869 3159 2106 3286 
Q 2344 3413 2694 3413 
Q 3403 3413 3811 2945 
Q 4219 2478 4219 1663 
Q 4219 847 3811 378 
Q 3403 -91 2694 -91 
Q 2344 -91 2106 36 
Q 1869 163 1728 422 
L 1728 -953 
L 2241 -953 
L 2241 -1331 
L 147 -1331 
L 147 -953 
L 622 -953 
L 622 2944 
z
" transform="scale(0.015625)"/>
      </defs>
      <use xlink:href="#DejaVuSerif-Bold-43"/>
      <use xlink:href="#DejaVuSerif-Bold-6f" transform="translate(79.589844 0)"/>
      <use xlink:href="#DejaVuSerif-Bold-68" transform="translate(146.289062 0)"/>
      <use xlink:href="#DejaVuSerif-Bold-65" transform="translate(218.994141 0)"/>
      <use xlink:href="#DejaVuSerif-Bold-6e" transform="translate(282.617188 0)"/>
      <use xlink:href="#DejaVuSerif-Bold-73" transform="translate(355.322266 0)"/>
      <use xlink:href="#DejaVuSerif-Bold-20" transform="translate(411.621094 0)"/>
      <use xlink:href="#DejaVuSerif-Bold-4b" transform="translate(446.435547 0)"/>
      <use xlink:href="#DejaVuSerif-Bold-61" transform="translate(533.349609 0)"/>
      <use xlink:href="#DejaVuSerif-Bold-70" transform="translate(598.144531 0)"/>
      <use xlink:href="#DejaVuSerif-Bold-70" transform="translate(668.066406 0)"/>
      <use xlink:href="#DejaVuSerif-Bold-61" transform="translate(737.988281 0)"/>
     </g>
    </g>
   </g>
   <g id="patch_3">
    <path d="M 61.099325 205.739066 
L 76.704465 205.739066 
L 76.704465 169.854657 
L 61.099325 169.854657 
z
" clip-path="url(#p9acc9d58e6)" style="fill: #004282; stroke: #000000; stroke-width: 0.5; stroke-linejoin: miter"/>
   </g>
   <g id="patch_4">
    <path d="M 78.438369 205.739066 
L 94.04351 205.739066 
L 94.04351 168.960127 
L 78.438369 168.960127 
z
" clip-path="url(#p9acc9d58e6)" style="fill: #ffc900; stroke: #000000; stroke-width: 0.5; stroke-linejoin: miter"/>
   </g>
   <g id="patch_5">
    <path d="M 95.777414 205.739066 
L 111.382554 205.739066 
L 111.382554 168.886371 
L 95.777414 168.886371 
z
" clip-path="url(#p9acc9d58e6)" style="fill: #00a0aa; stroke: #000000; stroke-width: 0.5; stroke-linejoin: miter"/>
   </g>
   <g id="patch_6">
    <path d="M 120.547478 205.739066 
L 136.152618 205.739066 
L 136.152618 151.860177 
L 120.547478 151.860177 
z
" clip-path="url(#p9acc9d58e6)" style="fill: #004282; stroke: #000000; stroke-width: 0.5; stroke-linejoin: miter"/>
   </g>
   <g id="patch_7">
    <path d="M 137.886523 205.739066 
L 153.491663 205.739066 
L 153.491663 151.96125 
L 137.886523 151.96125 
z
" clip-path="url(#p9acc9d58e6)" style="fill: #ffc900; stroke: #000000; stroke-width: 0.5; stroke-linejoin: miter"/>
   </g>
   <g id="patch_8">
    <path d="M 155.225567 205.739066 
L 170.830708 205.739066 
L 170.830708 150.773146 
L 155.225567 150.773146 
z
" clip-path="url(#p9acc9d58e6)" style="fill: #00a0aa; stroke: #000000; stroke-width: 0.5; stroke-linejoin: miter"/>
   </g>
   <g id="patch_9">
    <path d="M 188.665153 205.739066 
L 204.270294 205.739066 
L 204.270294 136.238039 
L 188.665153 136.238039 
z
" clip-path="url(#p9acc9d58e6)" style="fill: #004282; stroke: #000000; stroke-width: 0.5; stroke-linejoin: miter"/>
   </g>
   <g id="patch_10">
    <path d="M 206.004198 205.739066 
L 221.609338 205.739066 
L 221.609338 137.039386 
L 206.004198 137.039386 
z
" clip-path="url(#p9acc9d58e6)" style="fill: #ffc900; stroke: #000000; stroke-width: 0.5; stroke-linejoin: miter"/>
   </g>
   <g id="patch_11">
    <path d="M 239.443784 205.739066 
L 255.048925 205.739066 
L 255.048925 135.651698 
L 239.443784 135.651698 
z
" clip-path="url(#p9acc9d58e6)" style="fill: #004282; stroke: #000000; stroke-width: 0.5; stroke-linejoin: miter"/>
   </g>
   <g id="patch_12">
    <path d="M 256.782829 205.739066 
L 272.387969 205.739066 
L 272.387969 172.066103 
L 256.782829 172.066103 
z
" clip-path="url(#p9acc9d58e6)" style="fill: #ffc900; stroke: #000000; stroke-width: 0.5; stroke-linejoin: miter"/>
   </g>
   <g id="patch_13">
    <path d="M 274.121874 205.739066 
L 289.727014 205.739066 
L 289.727014 170.677876 
L 274.121874 170.677876 
z
" clip-path="url(#p9acc9d58e6)" style="fill: #00a0aa; stroke: #000000; stroke-width: 0.5; stroke-linejoin: miter"/>
   </g>
   <g id="patch_14">
    <path d="M 298.891937 205.739066 
L 314.497078 205.739066 
L 314.497078 148.511738 
L 298.891937 148.511738 
z
" clip-path="url(#p9acc9d58e6)" style="fill: #004282; stroke: #000000; stroke-width: 0.5; stroke-linejoin: miter"/>
   </g>
   <g id="patch_15">
    <path d="M 316.230982 205.739066 
L 331.836122 205.739066 
L 331.836122 147.824205 
L 316.230982 147.824205 
z
" clip-path="url(#p9acc9d58e6)" style="fill: #ffc900; stroke: #000000; stroke-width: 0.5; stroke-linejoin: miter"/>
   </g>
   <g id="patch_16">
    <path d="M 333.570027 205.739066 
L 349.175167 205.739066 
L 349.175167 149.815161 
L 333.570027 149.815161 
z
" clip-path="url(#p9acc9d58e6)" style="fill: #00a0aa; stroke: #000000; stroke-width: 0.5; stroke-linejoin: miter"/>
   </g>
   <g id="patch_17">
    <path d="M 358.340091 205.739066 
L 373.945231 205.739066 
L 373.945231 127.043266 
L 358.340091 127.043266 
z
" clip-path="url(#p9acc9d58e6)" style="fill: #004282; stroke: #000000; stroke-width: 0.5; stroke-linejoin: miter"/>
   </g>
   <g id="patch_18">
    <path d="M 375.679135 205.739066 
L 391.284276 205.739066 
L 391.284276 129.999276 
L 375.679135 129.999276 
z
" clip-path="url(#p9acc9d58e6)" style="fill: #ffc900; stroke: #000000; stroke-width: 0.5; stroke-linejoin: miter"/>
   </g>
   <g id="patch_19">
    <path d="M 393.01818 205.739066 
L 408.62332 205.739066 
L 408.62332 127.836912 
L 393.01818 127.836912 
z
" clip-path="url(#p9acc9d58e6)" style="fill: #00a0aa; stroke: #000000; stroke-width: 0.5; stroke-linejoin: miter"/>
   </g>
   <g id="patch_20">
    <path d="M 43.723125 205.739066 
L 43.723125 34.038594 
" style="fill: none; stroke: #000000; stroke-width: 0.8; stroke-linejoin: miter; stroke-linecap: square"/>
   </g>
   <g id="patch_21">
    <path d="M 425.99952 205.739066 
L 425.99952 34.038594 
" style="fill: none; stroke: #000000; stroke-width: 0.8; stroke-linejoin: miter; stroke-linecap: square"/>
   </g>
   <g id="patch_22">
    <path d="M 43.723125 205.739066 
L 425.99952 205.739066 
" style="fill: none; stroke: #000000; stroke-width: 0.8; stroke-linejoin: miter; stroke-linecap: square"/>
   </g>
   <g id="patch_23">
    <path d="M 43.723125 34.038594 
L 425.99952 34.038594 
" style="fill: none; stroke: #000000; stroke-width: 0.8; stroke-linejoin: miter; stroke-linecap: square"/>
   </g>
   <g id="text_15">
    <!-- 0.10 -->
    <g transform="translate(62.222207 166.88984) scale(0.06 -0.06)">
     <use xlink:href="#DejaVuSerif-30"/>
     <use xlink:href="#DejaVuSerif-2e" transform="translate(63.623047 0)"/>
     <use xlink:href="#DejaVuSerif-31" transform="translate(95.410156 0)"/>
     <use xlink:href="#DejaVuSerif-30" transform="translate(159.033203 0)"/>
    </g>
   </g>
   <g id="text_16">
    <!-- 0.11 -->
    <g transform="translate(79.561252 165.99531) scale(0.06 -0.06)">
     <use xlink:href="#DejaVuSerif-30"/>
     <use xlink:href="#DejaVuSerif-2e" transform="translate(63.623047 0)"/>
     <use xlink:href="#DejaVuSerif-31" transform="translate(95.410156 0)"/>
     <use xlink:href="#DejaVuSerif-31" transform="translate(159.033203 0)"/>
    </g>
   </g>
   <g id="text_17">
    <!-- 0.11 -->
    <g transform="translate(96.900297 165.921553) scale(0.06 -0.06)">
     <use xlink:href="#DejaVuSerif-30"/>
     <use xlink:href="#DejaVuSerif-2e" transform="translate(63.623047 0)"/>
     <use xlink:href="#DejaVuSerif-31" transform="translate(95.410156 0)"/>
     <use xlink:href="#DejaVuSerif-31" transform="translate(159.033203 0)"/>
    </g>
   </g>
   <g id="text_18">
    <!-- 0.16 -->
    <g transform="translate(121.670361 148.89536) scale(0.06 -0.06)">
     <defs>
      <path id="DejaVuSerif-36" d="M 2094 219 
Q 2534 219 2771 542 
Q 3009 866 3009 1472 
Q 3009 2078 2771 2401 
Q 2534 2725 2094 2725 
Q 1647 2725 1412 2412 
Q 1178 2100 1178 1509 
Q 1178 888 1415 553 
Q 1653 219 2094 219 
z
M 1075 2569 
Q 1288 2803 1556 2918 
Q 1825 3034 2163 3034 
Q 2859 3034 3264 2615 
Q 3669 2197 3669 1472 
Q 3669 763 3233 336 
Q 2797 -91 2069 -91 
Q 1278 -91 853 498 
Q 428 1088 428 2181 
Q 428 3406 931 4078 
Q 1434 4750 2350 4750 
Q 2597 4750 2869 4703 
Q 3141 4656 3425 4563 
L 3425 3794 
L 3072 3794 
Q 3034 4109 2831 4275 
Q 2628 4441 2284 4441 
Q 1678 4441 1381 3981 
Q 1084 3522 1075 2569 
z
" transform="scale(0.015625)"/>
     </defs>
     <use xlink:href="#DejaVuSerif-30"/>
     <use xlink:href="#DejaVuSerif-2e" transform="translate(63.623047 0)"/>
     <use xlink:href="#DejaVuSerif-31" transform="translate(95.410156 0)"/>
     <use xlink:href="#DejaVuSerif-36" transform="translate(159.033203 0)"/>
    </g>
   </g>
   <g id="text_19">
    <!-- 0.16 -->
    <g transform="translate(139.009405 148.996432) scale(0.06 -0.06)">
     <use xlink:href="#DejaVuSerif-30"/>
     <use xlink:href="#DejaVuSerif-2e" transform="translate(63.623047 0)"/>
     <use xlink:href="#DejaVuSerif-31" transform="translate(95.410156 0)"/>
     <use xlink:href="#DejaVuSerif-36" transform="translate(159.033203 0)"/>
    </g>
   </g>
   <g id="text_20">
    <!-- 0.16 -->
    <g transform="translate(156.34845 147.808329) scale(0.06 -0.06)">
     <use xlink:href="#DejaVuSerif-30"/>
     <use xlink:href="#DejaVuSerif-2e" transform="translate(63.623047 0)"/>
     <use xlink:href="#DejaVuSerif-31" transform="translate(95.410156 0)"/>
     <use xlink:href="#DejaVuSerif-36" transform="translate(159.033203 0)"/>
    </g>
   </g>
   <g id="text_21">
    <!-- 0.20 -->
    <g transform="translate(189.788036 133.273222) scale(0.06 -0.06)">
     <use xlink:href="#DejaVuSerif-30"/>
     <use xlink:href="#DejaVuSerif-2e" transform="translate(63.623047 0)"/>
     <use xlink:href="#DejaVuSerif-32" transform="translate(95.410156 0)"/>
     <use xlink:href="#DejaVuSerif-30" transform="translate(159.033203 0)"/>
    </g>
   </g>
   <g id="text_22">
    <!-- 0.20 -->
    <g transform="translate(207.127081 134.074569) scale(0.06 -0.06)">
     <use xlink:href="#DejaVuSerif-30"/>
     <use xlink:href="#DejaVuSerif-2e" transform="translate(63.623047 0)"/>
     <use xlink:href="#DejaVuSerif-32" transform="translate(95.410156 0)"/>
     <use xlink:href="#DejaVuSerif-30" transform="translate(159.033203 0)"/>
    </g>
   </g>
   <g id="text_23">
    <!-- 0.20 -->
    <g transform="translate(240.566667 132.68688) scale(0.06 -0.06)">
     <use xlink:href="#DejaVuSerif-30"/>
     <use xlink:href="#DejaVuSerif-2e" transform="translate(63.623047 0)"/>
     <use xlink:href="#DejaVuSerif-32" transform="translate(95.410156 0)"/>
     <use xlink:href="#DejaVuSerif-30" transform="translate(159.033203 0)"/>
    </g>
   </g>
   <g id="text_24">
    <!-- 0.10 -->
    <g transform="translate(257.905712 169.101285) scale(0.06 -0.06)">
     <use xlink:href="#DejaVuSerif-30"/>
     <use xlink:href="#DejaVuSerif-2e" transform="translate(63.623047 0)"/>
     <use xlink:href="#DejaVuSerif-31" transform="translate(95.410156 0)"/>
     <use xlink:href="#DejaVuSerif-30" transform="translate(159.033203 0)"/>
    </g>
   </g>
   <g id="text_25">
    <!-- 0.10 -->
    <g transform="translate(275.244756 167.713059) scale(0.06 -0.06)">
     <use xlink:href="#DejaVuSerif-30"/>
     <use xlink:href="#DejaVuSerif-2e" transform="translate(63.623047 0)"/>
     <use xlink:href="#DejaVuSerif-31" transform="translate(95.410156 0)"/>
     <use xlink:href="#DejaVuSerif-30" transform="translate(159.033203 0)"/>
    </g>
   </g>
   <g id="text_26">
    <!-- 0.17 -->
    <g transform="translate(300.01482 145.546921) scale(0.06 -0.06)">
     <use xlink:href="#DejaVuSerif-30"/>
     <use xlink:href="#DejaVuSerif-2e" transform="translate(63.623047 0)"/>
     <use xlink:href="#DejaVuSerif-31" transform="translate(95.410156 0)"/>
     <use xlink:href="#DejaVuSerif-37" transform="translate(159.033203 0)"/>
    </g>
   </g>
   <g id="text_27">
    <!-- 0.17 -->
    <g transform="translate(317.353865 144.859388) scale(0.06 -0.06)">
     <use xlink:href="#DejaVuSerif-30"/>
     <use xlink:href="#DejaVuSerif-2e" transform="translate(63.623047 0)"/>
     <use xlink:href="#DejaVuSerif-31" transform="translate(95.410156 0)"/>
     <use xlink:href="#DejaVuSerif-37" transform="translate(159.033203 0)"/>
    </g>
   </g>
   <g id="text_28">
    <!-- 0.16 -->
    <g transform="translate(334.692909 146.850344) scale(0.06 -0.06)">
     <use xlink:href="#DejaVuSerif-30"/>
     <use xlink:href="#DejaVuSerif-2e" transform="translate(63.623047 0)"/>
     <use xlink:href="#DejaVuSerif-31" transform="translate(95.410156 0)"/>
     <use xlink:href="#DejaVuSerif-36" transform="translate(159.033203 0)"/>
    </g>
   </g>
   <g id="text_29">
    <!-- 0.23 -->
    <g transform="translate(359.462973 124.078449) scale(0.06 -0.06)">
     <use xlink:href="#DejaVuSerif-30"/>
     <use xlink:href="#DejaVuSerif-2e" transform="translate(63.623047 0)"/>
     <use xlink:href="#DejaVuSerif-32" transform="translate(95.410156 0)"/>
     <use xlink:href="#DejaVuSerif-33" transform="translate(159.033203 0)"/>
    </g>
   </g>
   <g id="text_30">
    <!-- 0.22 -->
    <g transform="translate(376.802018 127.034459) scale(0.06 -0.06)">
     <use xlink:href="#DejaVuSerif-30"/>
     <use xlink:href="#DejaVuSerif-2e" transform="translate(63.623047 0)"/>
     <use xlink:href="#DejaVuSerif-32" transform="translate(95.410156 0)"/>
     <use xlink:href="#DejaVuSerif-32" transform="translate(159.033203 0)"/>
    </g>
   </g>
   <g id="text_31">
    <!-- 0.23 -->
    <g transform="translate(394.141063 124.872095) scale(0.06 -0.06)">
     <use xlink:href="#DejaVuSerif-30"/>
     <use xlink:href="#DejaVuSerif-2e" transform="translate(63.623047 0)"/>
     <use xlink:href="#DejaVuSerif-32" transform="translate(95.410156 0)"/>
     <use xlink:href="#DejaVuSerif-33" transform="translate(159.033203 0)"/>
    </g>
   </g>
   <g id="text_32">
    <!-- Δ=0.003 -->
    <g style="fill: #3b3b3b" transform="translate(66.33758 154.995619) scale(0.09 -0.09)">
     <defs>
      <path id="DejaVuSerif-394" d="M 4350 0 
L 244 0 
L 2034 4666 
L 2559 4666 
L 4350 0 
z
M 3506 331 
L 2138 3909 
L 763 331 
L 3506 331 
z
" transform="scale(0.015625)"/>
      <path id="DejaVuSerif-3d" d="M 678 2894 
L 4684 2894 
L 4684 2394 
L 678 2394 
L 678 2894 
z
M 678 1619 
L 4684 1619 
L 4684 1119 
L 678 1119 
L 678 1619 
z
" transform="scale(0.015625)"/>
     </defs>
     <use xlink:href="#DejaVuSerif-394"/>
     <use xlink:href="#DejaVuSerif-3d" transform="translate(72.216797 0)"/>
     <use xlink:href="#DejaVuSerif-30" transform="translate(156.005859 0)"/>
     <use xlink:href="#DejaVuSerif-2e" transform="translate(219.628906 0)"/>
     <use xlink:href="#DejaVuSerif-30" transform="translate(251.416016 0)"/>
     <use xlink:href="#DejaVuSerif-30" transform="translate(315.039062 0)"/>
     <use xlink:href="#DejaVuSerif-33" transform="translate(378.662109 0)"/>
    </g>
   </g>
   <g id="text_33">
    <!-- Δ=0.003 -->
    <g style="fill: #3b3b3b" transform="translate(125.785733 136.882394) scale(0.09 -0.09)">
     <use xlink:href="#DejaVuSerif-394"/>
     <use xlink:href="#DejaVuSerif-3d" transform="translate(72.216797 0)"/>
     <use xlink:href="#DejaVuSerif-30" transform="translate(156.005859 0)"/>
     <use xlink:href="#DejaVuSerif-2e" transform="translate(219.628906 0)"/>
     <use xlink:href="#DejaVuSerif-30" transform="translate(251.416016 0)"/>
     <use xlink:href="#DejaVuSerif-30" transform="translate(315.039062 0)"/>
     <use xlink:href="#DejaVuSerif-33" transform="translate(378.662109 0)"/>
    </g>
   </g>
   <g id="text_34">
    <!-- Δ=0.002 -->
    <g style="fill: #3b3b3b" transform="translate(185.233887 122.347288) scale(0.09 -0.09)">
     <use xlink:href="#DejaVuSerif-394"/>
     <use xlink:href="#DejaVuSerif-3d" transform="translate(72.216797 0)"/>
     <use xlink:href="#DejaVuSerif-30" transform="translate(156.005859 0)"/>
     <use xlink:href="#DejaVuSerif-2e" transform="translate(219.628906 0)"/>
     <use xlink:href="#DejaVuSerif-30" transform="translate(251.416016 0)"/>
     <use xlink:href="#DejaVuSerif-30" transform="translate(315.039062 0)"/>
     <use xlink:href="#DejaVuSerif-32" transform="translate(378.662109 0)"/>
    </g>
   </g>
   <g id="text_35">
    <!-- Δ=0.106 -->
    <g style="fill: #ea3b06" transform="translate(244.68204 121.760946) scale(0.09 -0.09)">
     <use xlink:href="#DejaVuSerif-394"/>
     <use xlink:href="#DejaVuSerif-3d" transform="translate(72.216797 0)"/>
     <use xlink:href="#DejaVuSerif-30" transform="translate(156.005859 0)"/>
     <use xlink:href="#DejaVuSerif-2e" transform="translate(219.628906 0)"/>
     <use xlink:href="#DejaVuSerif-31" transform="translate(251.416016 0)"/>
     <use xlink:href="#DejaVuSerif-30" transform="translate(315.039062 0)"/>
     <use xlink:href="#DejaVuSerif-36" transform="translate(378.662109 0)"/>
    </g>
   </g>
   <g id="text_36">
    <!-- Δ=0.006 -->
    <g style="fill: #3b3b3b" transform="translate(304.130193 133.933453) scale(0.09 -0.09)">
     <use xlink:href="#DejaVuSerif-394"/>
     <use xlink:href="#DejaVuSerif-3d" transform="translate(72.216797 0)"/>
     <use xlink:href="#DejaVuSerif-30" transform="translate(156.005859 0)"/>
     <use xlink:href="#DejaVuSerif-2e" transform="translate(219.628906 0)"/>
     <use xlink:href="#DejaVuSerif-30" transform="translate(251.416016 0)"/>
     <use xlink:href="#DejaVuSerif-30" transform="translate(315.039062 0)"/>
     <use xlink:href="#DejaVuSerif-36" transform="translate(378.662109 0)"/>
    </g>
   </g>
   <g id="text_37">
    <!-- Δ=0.009 -->
    <g style="fill: #3b3b3b" transform="translate(363.578346 113.152514) scale(0.09 -0.09)">
     <defs>
      <path id="DejaVuSerif-39" d="M 2994 2091 
Q 2784 1856 2512 1740 
Q 2241 1625 1900 1625 
Q 1206 1625 804 2044 
Q 403 2463 403 3188 
Q 403 3897 839 4323 
Q 1275 4750 2003 4750 
Q 2794 4750 3217 4161 
Q 3641 3572 3641 2478 
Q 3641 1253 3137 581 
Q 2634 -91 1722 -91 
Q 1475 -91 1203 -44 
Q 931 3 647 97 
L 647 872 
L 997 872 
Q 1038 556 1241 387 
Q 1444 219 1784 219 
Q 2391 219 2687 676 
Q 2984 1134 2994 2091 
z
M 1978 4441 
Q 1534 4441 1298 4117 
Q 1063 3794 1063 3188 
Q 1063 2581 1298 2256 
Q 1534 1931 1978 1931 
Q 2422 1931 2658 2245 
Q 2894 2559 2894 3150 
Q 2894 3772 2656 4106 
Q 2419 4441 1978 4441 
z
" transform="scale(0.015625)"/>
     </defs>
     <use xlink:href="#DejaVuSerif-394"/>
     <use xlink:href="#DejaVuSerif-3d" transform="translate(72.216797 0)"/>
     <use xlink:href="#DejaVuSerif-30" transform="translate(156.005859 0)"/>
     <use xlink:href="#DejaVuSerif-2e" transform="translate(219.628906 0)"/>
     <use xlink:href="#DejaVuSerif-30" transform="translate(251.416016 0)"/>
     <use xlink:href="#DejaVuSerif-30" transform="translate(315.039062 0)"/>
     <use xlink:href="#DejaVuSerif-39" transform="translate(378.662109 0)"/>
    </g>
   </g>
   <g id="text_38">
    <!-- Run-to-Run Agreement Variability -->
    <g transform="translate(157.48101 14.038594) scale(0.09 -0.09)">
     <defs>
      <path id="DejaVuSerif-52" d="M 3066 2316 
Q 3284 2256 3442 2114 
Q 3600 1972 3725 1716 
L 4403 331 
L 4972 331 
L 4972 0 
L 3872 0 
L 3144 1484 
Q 2934 1916 2759 2042 
Q 2584 2169 2278 2169 
L 1581 2169 
L 1581 331 
L 2241 331 
L 2241 0 
L 353 0 
L 353 331 
L 947 331 
L 947 4331 
L 353 4331 
L 353 4666 
L 2719 4666 
Q 3400 4666 3770 4341 
Q 4141 4016 4141 3419 
Q 4141 2938 3870 2661 
Q 3600 2384 3066 2316 
z
M 1581 2503 
L 2503 2503 
Q 2975 2503 3200 2726 
Q 3425 2950 3425 3419 
Q 3425 3888 3200 4109 
Q 2975 4331 2503 4331 
L 1581 4331 
L 1581 2503 
z
" transform="scale(0.015625)"/>
      <path id="DejaVuSerif-20" transform="scale(0.015625)"/>
      <path id="DejaVuSerif-41" d="M 1281 1691 
L 2994 1691 
L 2138 3909 
L 1281 1691 
z
M -38 0 
L -38 331 
L 372 331 
L 2034 4666 
L 2559 4666 
L 4225 331 
L 4684 331 
L 4684 0 
L 2988 0 
L 2988 331 
L 3506 331 
L 3116 1356 
L 1153 1356 
L 763 331 
L 1275 331 
L 1275 0 
L -38 0 
z
" transform="scale(0.015625)"/>
      <path id="DejaVuSerif-56" d="M 1119 4331 
L 2497 750 
L 3872 4331 
L 3347 4331 
L 3347 4666 
L 4716 4666 
L 4716 4331 
L 4263 4331 
L 2597 0 
L 2059 0 
L 403 4331 
L -63 4331 
L -63 4666 
L 1638 4666 
L 1638 4331 
L 1119 4331 
z
" transform="scale(0.015625)"/>
      <path id="DejaVuSerif-79" d="M 1381 -609 
L 1600 -56 
L 359 2988 
L -19 2988 
L -19 3322 
L 1509 3322 
L 1509 2988 
L 978 2988 
L 1913 703 
L 2847 2988 
L 2350 2988 
L 2350 3322 
L 3597 3322 
L 3597 2988 
L 3225 2988 
L 1703 -750 
Q 1547 -1138 1356 -1280 
Q 1166 -1422 819 -1422 
Q 672 -1422 517 -1397 
Q 363 -1372 206 -1325 
L 206 -691 
L 500 -691 
Q 519 -903 608 -995 
Q 697 -1088 884 -1088 
Q 1056 -1088 1161 -992 
Q 1266 -897 1381 -609 
z
" transform="scale(0.015625)"/>
     </defs>
     <use xlink:href="#DejaVuSerif-52"/>
     <use xlink:href="#DejaVuSerif-75" transform="translate(75.292969 0)"/>
     <use xlink:href="#DejaVuSerif-6e" transform="translate(139.697266 0)"/>
     <use xlink:href="#DejaVuSerif-2d" transform="translate(204.101562 0)"/>
     <use xlink:href="#DejaVuSerif-74" transform="translate(237.890625 0)"/>
     <use xlink:href="#DejaVuSerif-6f" transform="translate(278.076172 0)"/>
     <use xlink:href="#DejaVuSerif-2d" transform="translate(338.28125 0)"/>
     <use xlink:href="#DejaVuSerif-52" transform="translate(372.070312 0)"/>
     <use xlink:href="#DejaVuSerif-75" transform="translate(447.363281 0)"/>
     <use xlink:href="#DejaVuSerif-6e" transform="translate(511.767578 0)"/>
     <use xlink:href="#DejaVuSerif-20" transform="translate(576.171875 0)"/>
     <use xlink:href="#DejaVuSerif-41" transform="translate(607.958984 0)"/>
     <use xlink:href="#DejaVuSerif-67" transform="translate(680.175781 0)"/>
     <use xlink:href="#DejaVuSerif-72" transform="translate(744.189453 0)"/>
     <use xlink:href="#DejaVuSerif-65" transform="translate(791.992188 0)"/>
     <use xlink:href="#DejaVuSerif-65" transform="translate(851.171875 0)"/>
     <use xlink:href="#DejaVuSerif-6d" transform="translate(910.351562 0)"/>
     <use xlink:href="#DejaVuSerif-65" transform="translate(1005.175781 0)"/>
     <use xlink:href="#DejaVuSerif-6e" transform="translate(1064.355469 0)"/>
     <use xlink:href="#DejaVuSerif-74" transform="translate(1128.759766 0)"/>
     <use xlink:href="#DejaVuSerif-20" transform="translate(1168.945312 0)"/>
     <use xlink:href="#DejaVuSerif-56" transform="translate(1200.732422 0)"/>
     <use xlink:href="#DejaVuSerif-61" transform="translate(1263.824219 0)"/>
     <use xlink:href="#DejaVuSerif-72" transform="translate(1323.443359 0)"/>
     <use xlink:href="#DejaVuSerif-69" transform="translate(1371.246094 0)"/>
     <use xlink:href="#DejaVuSerif-61" transform="translate(1403.228516 0)"/>
     <use xlink:href="#DejaVuSerif-62" transform="translate(1462.847656 0)"/>
     <use xlink:href="#DejaVuSerif-69" transform="translate(1526.861328 0)"/>
     <use xlink:href="#DejaVuSerif-6c" transform="translate(1558.84375 0)"/>
     <use xlink:href="#DejaVuSerif-69" transform="translate(1590.826172 0)"/>
     <use xlink:href="#DejaVuSerif-74" transform="translate(1622.808594 0)"/>
     <use xlink:href="#DejaVuSerif-79" transform="translate(1662.994141 0)"/>
    </g>
   </g>
   <g id="legend_1">
    <g id="patch_24">
     <path d="M 363.943114 80.869531 
L 419.69952 80.869531 
Q 421.49952 80.869531 421.49952 79.069531 
L 421.49952 40.338594 
Q 421.49952 38.538594 419.69952 38.538594 
L 363.943114 38.538594 
Q 362.143114 38.538594 362.143114 40.338594 
L 362.143114 79.069531 
Q 362.143114 80.869531 363.943114 80.869531 
z
" style="fill: #ffffff; opacity: 0.95; stroke: #cccccc; stroke-linejoin: miter"/>
    </g>
    <g id="patch_25">
     <path d="M 365.743114 48.977187 
L 383.743114 48.977187 
L 383.743114 42.677187 
L 365.743114 42.677187 
z
" style="fill: #004282; stroke: #004282; stroke-linejoin: miter"/>
    </g>
    <g id="text_39">
     <!-- Run 1 -->
     <g transform="translate(390.943114 48.977187) scale(0.09 -0.09)">
      <use xlink:href="#DejaVuSerif-52"/>
      <use xlink:href="#DejaVuSerif-75" transform="translate(75.292969 0)"/>
      <use xlink:href="#DejaVuSerif-6e" transform="translate(139.697266 0)"/>
      <use xlink:href="#DejaVuSerif-20" transform="translate(204.101562 0)"/>
      <use xlink:href="#DejaVuSerif-31" transform="translate(235.888672 0)"/>
     </g>
    </g>
    <g id="patch_26">
     <path d="M 365.743114 62.1875 
L 383.743114 62.1875 
L 383.743114 55.8875 
L 365.743114 55.8875 
z
" style="fill: #ffc900; stroke: #ffc900; stroke-linejoin: miter"/>
    </g>
    <g id="text_40">
     <!-- Run 2 -->
     <g transform="translate(390.943114 62.1875) scale(0.09 -0.09)">
      <use xlink:href="#DejaVuSerif-52"/>
      <use xlink:href="#DejaVuSerif-75" transform="translate(75.292969 0)"/>
      <use xlink:href="#DejaVuSerif-6e" transform="translate(139.697266 0)"/>
      <use xlink:href="#DejaVuSerif-20" transform="translate(204.101562 0)"/>
      <use xlink:href="#DejaVuSerif-32" transform="translate(235.888672 0)"/>
     </g>
    </g>
    <g id="patch_27">
     <path d="M 365.743114 75.397812 
L 383.743114 75.397812 
L 383.743114 69.097812 
L 365.743114 69.097812 
z
" style="fill: #00a0aa; stroke: #00a0aa; stroke-linejoin: miter"/>
    </g>
    <g id="text_41">
     <!-- Run 3 -->
     <g transform="translate(390.943114 75.397812) scale(0.09 -0.09)">
      <use xlink:href="#DejaVuSerif-52"/>
      <use xlink:href="#DejaVuSerif-75" transform="translate(75.292969 0)"/>
      <use xlink:href="#DejaVuSerif-6e" transform="translate(139.697266 0)"/>
      <use xlink:href="#DejaVuSerif-20" transform="translate(204.101562 0)"/>
      <use xlink:href="#DejaVuSerif-33" transform="translate(235.888672 0)"/>
     </g>
    </g>
   </g>
  </g>
 </g>
 <defs>
  <clipPath id="p9acc9d58e6">
   <rect x="43.723125" y="34.038594" width="382.276395" height="171.700472"/>
  </clipPath>
 </defs>
</svg>
